<?xml version="1.0" encoding="UTF-8"?>
<svg version="1.1" xmlns="http://www.w3.org/2000/svg" width="500" height="500">
<path d="M0 0 C165 0 330 0 500 0 C500 165 500 330 500 500 C335 500 170 500 0 500 C0 335 0 170 0 0 Z " fill="#FEFEFE" transform="translate(0,0)"/>
<path d="M0 0 C4.14096907 3.86163743 8.09030922 7.90608296 12 12 C16.09182962 10.40011401 18.67055357 7.43015711 21.625 4.3125 C31.80954488 -6.06894504 42.20201351 -12.9780195 57.25 -13.4375 C62.61138265 -13.23292093 67.09499859 -12.12457688 72 -10 C72.65355469 -9.74476563 73.30710938 -9.48953125 73.98046875 -9.2265625 C85.88092108 -4.04832176 92.38939207 5.32543314 97 17 C100.06375955 28.71437474 97.76821443 39.66065938 91.875 50 C90.92218587 51.33728299 89.96316266 52.67015105 89 54 C88.17628906 55.4540625 88.17628906 55.4540625 87.3359375 56.9375 C84.17411784 61.57957231 81.68785825 64.38083933 76.19140625 65.64697266 C72.85870979 66.0686587 69.60825172 66.24516181 66.25 66.3125 C65.14817383 66.35439453 64.04634766 66.39628906 62.91113281 66.43945312 C59.61574603 66.3612065 57.09047889 66.16034257 54 65 C51.81499897 62.50323149 50.46562765 60.14805469 49.07714844 57.14135742 C48.72168945 56.43470947 48.36623047 55.72806152 48 55 C47.34 55 46.68 55 46 55 C45.62713867 55.77714355 45.25427734 56.55428711 44.87011719 57.35498047 C43.47829649 60.24099974 42.07566622 63.12142753 40.66552734 65.99853516 C40.05796013 67.24380491 39.45472224 68.49119679 38.85595703 69.74072266 C37.99357314 71.53842838 37.11417125 73.32793894 36.234375 75.1171875 C35.71069336 76.19597168 35.18701172 77.27475586 34.64746094 78.38623047 C32.94489066 81.0874334 31.96399101 81.95753168 29 83 C28.16151196 81.54462432 27.32936066 80.08559627 26.5 78.625 C26.0359375 77.81289062 25.571875 77.00078125 25.09375 76.1640625 C24 74 24 74 24 72 C22.07810956 72.15546972 22.07810956 72.15546972 20 73 C18.43526659 75.06702585 18.43526659 75.06702585 17.25 77.5625 C16.82203125 78.38878906 16.3940625 79.21507812 15.953125 80.06640625 C15.63859375 80.70449219 15.3240625 81.34257812 15 82 C13.68 82 12.36 82 11 82 C6.71 73.42 2.42 64.84 -2 56 C-3.32 56 -4.64 56 -6 56 C-7.65 58.97 -9.3 61.94 -11 65 C-17.6 65 -24.2 65 -31 65 C-31.33 63.35 -31.66 61.7 -32 60 C-30 59 -30 59 -26.5859375 59.24609375 C-20.15118999 59.642336 -20.15118999 59.642336 -14 58 C-9.83869162 53.62413658 -7.92396385 47.61367085 -6 42 C-4.15454102 42.24731445 -4.15454102 42.24731445 -2 43 C-0.67553711 44.76245117 -0.67553711 44.76245117 0.47265625 47.04296875 C0.89740234 47.86990234 1.32214844 48.69683594 1.75976562 49.54882812 C2.40461914 50.8549707 2.40461914 50.8549707 3.0625 52.1875 C3.49626953 53.03892578 3.93003906 53.89035156 4.37695312 54.76757812 C5.218524 56.42382035 6.05293786 58.08372291 6.87939453 59.74755859 C7.83629833 61.67095607 8.81976424 63.58110036 9.80859375 65.48828125 C11 68 11 68 11 70 C12.32 70 13.64 70 15 70 C15.268125 69.113125 15.53625 68.22625 15.8125 67.3125 C16.91710819 64.23122452 18.22849144 61.73778595 20 59 C21.859375 59.25390625 21.859375 59.25390625 24 60 C25.265625 61.77734375 25.265625 61.77734375 26.25 63.9375 C26.58515625 64.64777344 26.9203125 65.35804688 27.265625 66.08984375 C28 68 28 68 28 70 C29.91687067 69.93908438 29.91687067 69.93908438 32 69 C33.70027303 66.45575705 33.70027303 66.45575705 35.09375 63.25 C35.64933594 62.0846875 36.20492187 60.919375 36.77734375 59.71875 C37.35321096 58.47993162 37.92741206 57.24033748 38.5 56 C39.61951917 53.57490251 40.75660852 51.16131298 41.90625 48.75 C42.40447266 47.67234375 42.90269531 46.5946875 43.41601562 45.484375 C45 43 45 43 47.19335938 42.140625 C47.78955078 42.09421875 48.38574219 42.0478125 49 42 C50.33838733 44.45570175 51.67086232 46.91429916 53 49.375 C53.3815625 50.07367188 53.763125 50.77234375 54.15625 51.4921875 C57 56.7734375 57 56.7734375 57 59 C69.02687728 59.73643272 69.02687728 59.73643272 80.15625 56.12890625 C82.56304416 53.55314196 84.28309822 51.07645797 86 48 C86.53882813 47.08605469 87.07765625 46.17210937 87.6328125 45.23046875 C92.06922657 36.36976195 92.37566965 26.69733909 90.40625 17.109375 C87.70284171 9.14933947 81.54648907 1.87088499 74.375 -2.5 C64.3580187 -6.95199169 53.2369051 -7.97320501 42.8125 -4.1875 C34.57128554 -0.27154038 28.36076173 6.40251712 22.19921875 12.97265625 C21.32910156 13.88917969 20.45898438 14.80570313 19.5625 15.75 C18.80066406 16.59046875 18.03882813 17.4309375 17.25390625 18.296875 C15 20 15 20 12.60009766 19.83178711 C9.5546787 18.857539 8.31100448 17.72254346 6.14453125 15.39453125 C5.43876953 14.65783203 4.73300781 13.92113281 4.00585938 13.16210938 C2.56245686 11.6158821 1.11972987 10.06902391 -0.32226562 8.52148438 C-8.05472163 0.45313888 -16.22692465 -5.27731408 -27.61328125 -6.3359375 C-40.16965243 -6.46852854 -47.64528567 -4.16522309 -56.796875 4.5546875 C-64.78441902 13.42029487 -65.71113984 22.58195538 -65.17480469 34.06005859 C-64.09219175 46.07464295 -54.05653101 55.25994346 -45.92504883 63.23852539 C-45.15016617 64.00727493 -44.37528351 64.77602448 -43.57691956 65.56806946 C-41.90895489 67.22182497 -40.23874042 68.8733139 -38.56647682 70.52272224 C-35.91707577 73.1370833 -33.27504685 75.758693 -30.63493347 78.38243103 C-23.13273244 85.83594075 -15.61926339 93.27800492 -8.09692383 100.71118164 C-3.4832577 105.27120797 1.12055744 109.84099085 5.71850014 114.41686821 C7.46697241 116.15295412 9.21922689 117.88523968 10.97536278 119.61357307 C13.43055913 122.03022032 15.87307759 124.4590481 18.31323242 126.89086914 C19.03591309 127.59602661 19.75859375 128.30118408 20.50317383 129.02770996 C25.62964998 134.17418803 29.90832329 139.49935319 30.53125 146.96484375 C30.47033674 154.70844152 30.28357681 161.2900615 26 168 C25.46375 168.886875 24.9275 169.77375 24.375 170.6875 C17.86518043 177.02600853 10.84608593 180.09397803 1.875 180.375 C0.82054688 180.42398438 -0.23390625 180.47296875 -1.3203125 180.5234375 C-13.32021905 178.81644442 -20.49467885 169.90879833 -28.27001953 161.4765625 C-29.74329342 159.88886418 -31.23728476 158.32302107 -32.734375 156.7578125 C-34.03713379 155.35233154 -34.03713379 155.35233154 -35.36621094 153.91845703 C-37.88004857 151.65997231 -37.88004857 151.65997231 -41.12792969 152.18774414 C-42.07571289 152.45578857 -43.02349609 152.72383301 -44 153 C-55.21223833 153.83003221 -55.21223833 153.83003221 -60.5 151.375 C-66.29384078 145.87085126 -70.0174084 141.28817837 -70.3125 133.0625 C-70.17428356 127.24013237 -68.54347981 123.80072645 -64.75 119.375 C-59.87441316 115.16426591 -55.86406902 112.26860425 -49.109375 112.6875 C-42.12565887 113.72212461 -37.61150302 115.55458162 -33.19140625 121.18359375 C-29.3874594 126.98305371 -29.35651016 132.15142953 -30 139 C-31.5625 142.4375 -31.5625 142.4375 -33 145 C-33.15146219 147.95351267 -32.53075203 149.36523893 -30.64453125 151.62109375 C-26.98903113 155.37697373 -23.02227249 158.81421512 -19.05078125 162.23046875 C-17.63984616 163.44790417 -16.24202872 164.68065545 -14.85546875 165.92578125 C-14.16066406 166.54839844 -13.46585938 167.17101562 -12.75 167.8125 C-11.81414062 168.65748047 -11.81414062 168.65748047 -10.859375 169.51953125 C-4.88556816 174.27598669 1.64881155 173.63457568 9 173 C14.50214358 171.7109758 17.26378673 169.02258223 20.4375 164.4375 C23.05898657 160.201692 24.17882624 156.80064174 24.3125 151.8125 C24.34988281 150.91144531 24.38726562 150.01039063 24.42578125 149.08203125 C23.27411592 140.74566479 17.99296141 135.43592333 12.22143555 129.81494141 C11.44205627 129.03979691 10.662677 128.2646524 9.85968018 127.46601868 C8.17431296 125.79247904 6.48430731 124.12360023 4.79016685 122.45894241 C2.10289833 119.81832926 -0.57190431 117.16563144 -3.24394226 114.50961304 C-8.44083083 109.34823382 -13.65099902 104.20046051 -18.86380005 99.05516815 C-25.94107166 92.06842915 -33.00918603 85.07255425 -40.06487083 78.06400681 C-42.69005133 75.46186908 -45.32455495 72.86944227 -47.95979309 70.27749634 C-49.58469601 68.66670029 -51.20920288 67.05550458 -52.83325195 65.44384766 C-53.55921066 64.73495895 -54.28516937 64.02607025 -55.03312683 63.29570007 C-64.82153864 53.53094775 -72.0688272 43.11604156 -72.4375 28.9375 C-72.03562796 17.0498658 -67.88893263 7.0624145 -59.8125 -1.75 C-41.82856618 -18.39596062 -17.55736976 -14.96693816 0 0 Z " fill="#CE343A" transform="translate(126,158)"/>
<path d="M0 0 C4.29933615 2.35967117 7.13002838 5.4685804 9 10 C9.60217006 16.12206228 8.92548606 20.16957323 5 25 C0.89454611 28.7235512 -2.43158269 29.64955311 -7.82421875 29.38671875 C-12.33281786 28.5853699 -15.03243976 25.84024968 -18.375 22.9375 C-20.88884544 18.39324094 -20.73753515 14.07334788 -20 9 C-15.8353697 0.36224827 -9.09951079 -1.62723727 0 0 Z " fill="#FEFBFB" transform="translate(82,277)"/>
<path d="M0 0 C2.27807617 0.07446289 2.27807617 0.07446289 5 1 C6.46072444 3.30801775 7.50398454 5.32006676 8.55078125 7.80859375 C8.85445114 8.49051285 9.15812103 9.17243195 9.47099304 9.87501526 C10.43609352 12.05512041 11.37391571 14.24586844 12.3125 16.4375 C12.96253684 17.91023719 13.61421106 19.38225283 14.26757812 20.85351562 C19 31.60611464 19 31.60611464 19 34 C17.68 34 16.36 34 15 34 C14.01 31.03 13.02 28.06 12 25 C5.4 25 -1.2 25 -8 25 C-8.99 27.97 -9.98 30.94 -11 34 C-12.32 34 -13.64 34 -15 34 C-13.61625046 29.59185274 -11.91836812 25.47259068 -9.9609375 21.2890625 C-9.67521881 20.67606293 -9.38950012 20.06306335 -9.09512329 19.43148804 C-8.19146932 17.49454784 -7.28331831 15.55975656 -6.375 13.625 C-5.75751275 12.30352544 -5.14032233 10.98191214 -4.5234375 9.66015625 C-3.01905252 6.43849336 -1.51062991 3.21874023 0 0 Z " fill="#2E1B1C" transform="translate(311,215)"/>
<path d="M0 0 C4.20852443 1.05213111 4.69961475 1.37228276 7.2421875 4.53515625 C7.83386719 5.26283203 8.42554688 5.99050781 9.03515625 6.74023438 C9.64230469 7.50658203 10.24945313 8.27292969 10.875 9.0625 C11.47441406 9.80177734 12.07382812 10.54105469 12.69140625 11.30273438 C16.58017779 16.12363012 20.27903663 21.0387155 24 26 C24.33 17.42 24.66 8.84 25 0 C25.99 0 26.98 0 28 0 C28 11.22 28 22.44 28 34 C23.87171083 32.96792771 23.41653477 32.77020321 20.9765625 29.68359375 C20.43 29.00103516 19.8834375 28.31847656 19.3203125 27.61523438 C18.76085937 26.89658203 18.20140625 26.17792969 17.625 25.4375 C16.79742187 24.40012695 16.79742187 24.40012695 15.953125 23.34179688 C12.20863425 18.6260239 8.61545356 13.82060475 5 9 C4.67 17.25 4.34 25.5 4 34 C2.68 34 1.36 34 0 34 C0 22.78 0 11.56 0 0 Z " fill="#2B191A" transform="translate(290,263)"/>
<path d="M0 0 C1.32 0 2.64 0 4 0 C4 4.95 4 9.9 4 15 C10.93 15 17.86 15 25 15 C25 10.05 25 5.1 25 0 C26.32 0 27.64 0 29 0 C29 11.22 29 22.44 29 34 C27.68 34 26.36 34 25 34 C25 28.72 25 23.44 25 18 C18.07 18 11.14 18 4 18 C4 23.28 4 28.56 4 34 C2.68 34 1.36 34 0 34 C0 22.78 0 11.56 0 0 Z " fill="#372526" transform="translate(392,215)"/>
<path d="M0 0 C0.99 0 1.98 0 3 0 C3 4.95 3 9.9 3 15 C9.93 15 16.86 15 24 15 C24 10.05 24 5.1 24 0 C25.32 0 26.64 0 28 0 C28 11.22 28 22.44 28 34 C27.01 34 26.02 34 25 34 C25 28.72 25 23.44 25 18 C17.74 18 10.48 18 3 18 C3 23.28 3 28.56 3 34 C2.01 34 1.02 34 0 34 C0 22.78 0 11.56 0 0 Z " fill="#291617" transform="translate(230,215)"/>
<path d="M0 0 C7.59 0 15.18 0 23 0 C23 0.99 23 1.98 23 3 C16.4 3 9.8 3 3 3 C3 6.96 3 10.92 3 15 C8.94 15 14.88 15 21 15 C21 15.99 21 16.98 21 18 C15.06 18 9.12 18 3 18 C3 22.29 3 26.58 3 31 C9.93 31 16.86 31 24 31 C24 31.99 24 32.98 24 34 C16.08 34 8.16 34 0 34 C0 22.78 0 11.56 0 0 Z " fill="#251213" transform="translate(269,215)"/>
<path d="M0 0 C1.41732422 -0.02126953 1.41732422 -0.02126953 2.86328125 -0.04296875 C5.83156882 0.19925665 7.99617165 0.94723393 10.6875 2.1875 C10.6875 3.1775 10.6875 4.1675 10.6875 5.1875 C9.6975 5.0225 8.7075 4.8575 7.6875 4.6875 C-0.15853018 3.51303752 -0.15853018 3.51303752 -7.3125 6.1875 C-7.97935938 8.64422892 -7.97935938 8.64422892 -7.3125 11.1875 C-3.16168342 14.11312027 1.27578525 15.4924846 6.06640625 17.02734375 C9.0155575 18.33270578 10.64225421 19.7086998 12.6875 22.1875 C13.25 25.125 13.25 25.125 12.6875 28.1875 C10.13725635 31.28914769 8.51050753 32.91316416 4.6875 34.1875 C-1.65374904 34.70515298 -6.80981886 34.75680669 -12.3125 31.1875 C-12.3125 30.1975 -12.3125 29.2075 -12.3125 28.1875 C-8.3125 29.1875 -8.3125 29.1875 -6.45703125 29.7109375 C-4.16790486 30.21963225 -2.09325273 30.35517553 0.25 30.375 C1.39662109 30.39626953 1.39662109 30.39626953 2.56640625 30.41796875 C4.98903503 30.3198375 4.98903503 30.3198375 7.6875 28.1875 C8.10416667 25.6875 8.10416667 25.6875 7.6875 23.1875 C5.0946354 20.5946354 2.90634403 20.31482542 -0.625 19.375 C-9.60147172 16.67112369 -9.60147172 16.67112369 -12.3125 12.1875 C-12.38469484 8.07239439 -11.987288 6.01465948 -9.375 2.8125 C-6.09149521 0.22549622 -4.13452747 0.0279738 0 0 Z " fill="#332021" transform="translate(239.3125,262.8125)"/>
<path d="M0 0 C1.6328125 1.10546875 1.6328125 1.10546875 3.9453125 3.10546875 C3.6153125 4.09546875 3.2853125 5.08546875 2.9453125 6.10546875 C1.9553125 5.61046875 0.9653125 5.11546875 -0.0546875 4.60546875 C-4.32947446 2.8005587 -7.42371599 2.59091636 -12.0546875 3.10546875 C-16.41412903 5.32631632 -19.22299214 7.52623034 -21.0546875 12.10546875 C-21.81175609 16.16610935 -21.94554777 19.55439164 -19.84765625 23.20703125 C-17.17656572 26.49348694 -15.32687986 28.40592848 -11.0546875 29.10546875 C-5.41787551 29.53088852 -2.01294567 28.53400336 2.9453125 26.10546875 C2.9453125 27.42546875 2.9453125 28.74546875 2.9453125 30.10546875 C-2.52197936 33.65182023 -7.73734308 33.94463838 -14.0546875 33.10546875 C-17.4296875 31.48046875 -17.4296875 31.48046875 -20.0546875 29.10546875 C-21.0034375 28.30109375 -21.9521875 27.49671875 -22.9296875 26.66796875 C-26.07963786 22.68210924 -25.67586725 18.03823255 -25.4765625 13.171875 C-24.74061554 7.82263087 -22.37622861 5.29807902 -18.4921875 1.79296875 C-13.41115959 -1.72466595 -5.74017711 -2.49905049 0 0 Z " fill="#2D1B1C" transform="translate(352.0546875,263.89453125)"/>
<path d="M0 0 C1.32 0 2.64 0 4 0 C5.46386719 1.65234375 5.46386719 1.65234375 6.796875 3.9375 C7.28027344 4.74960937 7.76367188 5.56171875 8.26171875 6.3984375 C8.75285156 7.25695312 9.24398438 8.11546875 9.75 9 C10.50990234 10.28777344 10.50990234 10.28777344 11.28515625 11.6015625 C12.53681243 13.72701639 13.77418693 15.85957098 15 18 C15.31227539 17.49025635 15.62455078 16.9805127 15.94628906 16.45532227 C17.36841449 14.14976326 18.80886265 11.8562186 20.25 9.5625 C20.74113281 8.76005859 21.23226563 7.95761719 21.73828125 7.13085938 C22.22167969 6.36708984 22.70507812 5.60332031 23.203125 4.81640625 C23.64301758 4.10943604 24.08291016 3.40246582 24.53613281 2.67407227 C26.27357068 0.68714574 27.42799933 0.36846077 30 0 C28.93243436 3.17219503 27.54044062 5.79449635 25.65234375 8.53125 C19.7362811 17.12934763 16.37487279 23.26252089 17 34 C15.68 34 14.36 34 13 34 C13.06703125 33.29359375 13.1340625 32.5871875 13.203125 31.859375 C13.37811893 20.25144407 7.30017629 12.13196574 1.08569336 2.74316406 C0 1 0 1 0 0 Z " fill="#332122" transform="translate(254,263)"/>
<path d="M0 0 C8.91 0 17.82 0 27 0 C27 0.99 27 1.98 27 3 C23.37 3 19.74 3 16 3 C16 13.23 16 23.46 16 34 C14.68 34 13.36 34 12 34 C12 23.77 12 13.54 12 3 C8.04 3 4.08 3 0 3 C0 2.01 0 1.02 0 0 Z " fill="#322021" transform="translate(359,215)"/>
<path d="M0 0 C1.32 0 2.64 0 4 0 C4 10.23 4 20.46 4 31 C10.27 31 16.54 31 23 31 C23 31.99 23 32.98 23 34 C15.41 34 7.82 34 0 34 C0 22.78 0 11.56 0 0 Z " fill="#301D1E" transform="translate(336,215)"/>
<path d="M0 0 C0.66 0 1.32 0 2 0 C3.17133058 2.45620851 4.33721722 4.91474917 5.5 7.375 C5.83386719 8.07367188 6.16773438 8.77234375 6.51171875 9.4921875 C9 14.7734375 9 14.7734375 9 17 C3.72 17 -1.56 17 -7 17 C-1.91071429 3.60714286 -1.91071429 3.60714286 0 0 Z " fill="#F5F4F4" transform="translate(312,220)"/>
</svg>
